<svg width="1200" height="420" viewBox="0 0 1200 420" fill="none" xmlns="http://www.w3.org/2000/svg" role="img" aria-label="Keshav Kumar Jha — 3D portfolio">
  <defs>
    <linearGradient id="bg" x1="0" y1="0" x2="1200" y2="420" gradientUnits="userSpaceOnUse">
      <stop offset="0" stop-color="#070A12" />
      <stop offset="0.45" stop-color="#0B1022" />
      <stop offset="1" stop-color="#060610" />
    </linearGradient>
    <radialGradient id="glow" cx="0" cy="0" r="1" gradientUnits="userSpaceOnUse" gradientTransform="translate(860 160) rotate(115) scale(320 520)">
      <stop stop-color="#7C3AED" stop-opacity="0.55" />
      <stop offset="0.55" stop-color="#22D3EE" stop-opacity="0.2" />
      <stop offset="1" stop-color="#000000" stop-opacity="0" />
    </radialGradient>
    <linearGradient id="card" x1="0" y1="0" x2="1" y2="1">
      <stop offset="0" stop-color="#0B122A" />
      <stop offset="1" stop-color="#090A12" />
    </linearGradient>
    <linearGradient id="rim" x1="0" y1="0" x2="1" y2="0">
      <stop offset="0" stop-color="#22D3EE" stop-opacity="0.55" />
      <stop offset="0.55" stop-color="#A78BFA" stop-opacity="0.35" />
      <stop offset="1" stop-color="#F97316" stop-opacity="0.25" />
    </linearGradient>
    <filter id="softShadow" x="-20%" y="-20%" width="140%" height="160%">
      <feDropShadow dx="0" dy="14" stdDeviation="18" flood-color="#000" flood-opacity="0.55" />
    </filter>
    <filter id="keyShadow" x="-20%" y="-20%" width="140%" height="160%">
      <feDropShadow dx="0" dy="8" stdDeviation="7" flood-color="#000" flood-opacity="0.55" />
    </filter>
    <filter id="shine" x="-20%" y="-20%" width="140%" height="160%">
      <feGaussianBlur stdDeviation="6" result="blur" />
      <feColorMatrix
        in="blur"
        type="matrix"
        values="
          1 0 0 0 0
          0 1 0 0 0
          0 0 1 0 0
          0 0 0 0.55 0"
        result="alpha"
      />
      <feBlend in="SourceGraphic" in2="alpha" mode="screen" />
    </filter>
  </defs>

  <rect width="1200" height="420" rx="28" fill="url(#bg)" />
  <rect width="1200" height="420" rx="28" fill="url(#glow)" />

  <!-- stars -->
  <g opacity="0.85">
    <circle cx="120" cy="88" r="1.4" fill="#22D3EE" />
    <circle cx="178" cy="132" r="1.1" fill="#A78BFA" />
    <circle cx="222" cy="60" r="1.2" fill="#34D399" />
    <circle cx="318" cy="108" r="1.3" fill="#60A5FA" />
    <circle cx="410" cy="72" r="1.1" fill="#F472B6" />
    <circle cx="532" cy="118" r="1.2" fill="#22D3EE" />
    <circle cx="592" cy="70" r="1.1" fill="#A78BFA" />
    <circle cx="650" cy="134" r="1.3" fill="#34D399" />
    <circle cx="734" cy="84" r="1.1" fill="#60A5FA" />
    <circle cx="968" cy="94" r="1.2" fill="#F472B6" />
    <circle cx="1044" cy="142" r="1.1" fill="#22D3EE" />
    <circle cx="1108" cy="76" r="1.2" fill="#A78BFA" />
    <circle cx="170" cy="246" r="1.2" fill="#60A5FA" />
    <circle cx="252" cy="308" r="1.1" fill="#22D3EE" />
    <circle cx="402" cy="272" r="1.2" fill="#34D399" />
    <circle cx="520" cy="320" r="1.1" fill="#A78BFA" />
    <circle cx="620" cy="252" r="1.2" fill="#60A5FA" />
    <circle cx="728" cy="302" r="1.1" fill="#F472B6" />
    <circle cx="894" cy="286" r="1.2" fill="#22D3EE" />
    <circle cx="1018" cy="332" r="1.1" fill="#34D399" />
    <circle cx="1126" cy="258" r="1.2" fill="#A78BFA" />
  </g>

  <!-- left copy -->
  <g transform="translate(72 86)">
    <text
      x="0"
      y="0"
      fill="#A5B4FC"
      font-size="14"
      font-family="ui-sans-serif, system-ui, -apple-system, Segoe UI, Roboto, Helvetica, Arial"
      letter-spacing="0.18em"
    >
      PORTFOLIO / NEXT.JS / 3D
    </text>

    <text
      x="0"
      y="64"
      fill="#FFFFFF"
      font-size="54"
      font-weight="800"
      font-family="ui-sans-serif, system-ui, -apple-system, Segoe UI, Roboto, Helvetica, Arial"
    >
      Keshav Kumar Jha
    </text>

    <text
      x="0"
      y="102"
      fill="#D1D5DB"
      font-size="18"
      font-weight="600"
      font-family="ui-sans-serif, system-ui, -apple-system, Segoe UI, Roboto, Helvetica, Arial"
    >
      Full‑Stack &amp; AIML Developer · Motion‑rich UI · Real‑time experiences
    </text>

    <g transform="translate(0 140)" opacity="0.95">
      <rect x="0" y="0" width="168" height="44" rx="12" fill="#0B122A" stroke="url(#rim)" stroke-width="1.2" />
      <text
        x="20"
        y="28"
        fill="#E5E7EB"
        font-size="14"
        font-weight="700"
        font-family="ui-sans-serif, system-ui, -apple-system, Segoe UI, Roboto, Helvetica, Arial"
      >
        Explore the build
      </text>
      <circle cx="148" cy="22" r="8" fill="#22D3EE" opacity="0.35" />
      <path d="M146 22h8m-3-3 3 3-3 3" stroke="#E5E7EB" stroke-width="1.6" stroke-linecap="round" stroke-linejoin="round" />
    </g>
  </g>

  <!-- 3D keyboard card -->
  <g filter="url(#softShadow)" transform="translate(710 86) rotate(-8 220 140)">
    <path
      d="M62 22C62 11.0 71 2 82 2H368C379 2 388 11.0 388 22V258C388 269 379 278 368 278H82C71 278 62 269 62 258V22Z"
      fill="url(#card)"
      stroke="url(#rim)"
      stroke-width="1.5"
      opacity="0.98"
    />

    <!-- top shine -->
    <path d="M84 20H366C374 20 380 26 380 34V70H72V34C72 26 78 20 86 20Z" fill="#111B3A" opacity="0.65" filter="url(#shine)" />

    <!-- keys -->
    <g filter="url(#keyShadow)" transform="translate(92 64)">
      <!-- row 1 -->
      <rect x="0" y="0" width="56" height="56" rx="14" fill="#10B981" />
      <rect x="66" y="0" width="56" height="56" rx="14" fill="#22D3EE" />
      <rect x="132" y="0" width="56" height="56" rx="14" fill="#A78BFA" />
      <rect x="198" y="0" width="56" height="56" rx="14" fill="#F97316" />
      <rect x="264" y="0" width="56" height="56" rx="14" fill="#60A5FA" />

      <!-- row 2 -->
      <rect x="18" y="66" width="56" height="56" rx="14" fill="#111827" opacity="0.95" />
      <rect x="84" y="66" width="56" height="56" rx="14" fill="#EF4444" />
      <rect x="150" y="66" width="56" height="56" rx="14" fill="#10B981" />
      <rect x="216" y="66" width="56" height="56" rx="14" fill="#F59E0B" />
      <rect x="282" y="66" width="56" height="56" rx="14" fill="#111827" opacity="0.95" />

      <!-- row 3 -->
      <rect x="0" y="132" width="56" height="56" rx="14" fill="#F97316" />
      <rect x="66" y="132" width="56" height="56" rx="14" fill="#3B82F6" />
      <rect x="132" y="132" width="56" height="56" rx="14" fill="#111827" opacity="0.95" />
      <rect x="198" y="132" width="56" height="56" rx="14" fill="#22C55E" />
      <rect x="264" y="132" width="56" height="56" rx="14" fill="#111827" opacity="0.95" />
    </g>

    <!-- subtle rim -->
    <path d="M78 12H372C382 12 390 20 390 30V252C390 262 382 270 372 270H78C68 270 60 262 60 252V30C60 20 68 12 78 12Z" stroke="#FFFFFF" stroke-opacity="0.06" stroke-width="2" />
  </g>

  <!-- footer note -->
  <text
    x="72"
    y="386"
    fill="#9CA3AF"
    font-size="13"
    font-family="ui-sans-serif, system-ui, -apple-system, Segoe UI, Roboto, Helvetica, Arial"
  >
    Built with Next.js · Tailwind · Framer Motion · GSAP · Spline · Socket.io
  </text>
</svg>

